<svg id="_001-curacao" data-name="001-curacao" xmlns="http://www.w3.org/2000/svg" width="30.51" height="30.51" viewBox="0 0 30.51 30.51">
  <circle id="Ellipse_28" data-name="Ellipse 28" cx="15.255" cy="15.255" r="15.255" fill="#ffda44"/>
  <g id="Group_1547" data-name="Group 1547">
    <path id="Path_118" data-name="Path 118" d="M63,415.186a15.232,15.232,0,0,0,12.23-6.135H50.771A15.232,15.232,0,0,0,63,415.186Z" transform="translate(-47.746 -384.676)" fill="#0052b4"/>
    <path id="Path_119" data-name="Path 119" d="M30.51,15.255A15.255,15.255,0,1,0,.889,20.4H29.621a15.226,15.226,0,0,0,.889-5.141Z" fill="#0052b4"/>
  </g>
  <g id="Group_1548" data-name="Group 1548" transform="translate(3.775 7.131)">
    <path id="Path_120" data-name="Path 120" d="M120.194,164.182l.823,2.533h2.664l-2.155,1.566.823,2.533-2.155-1.566-2.155,1.566.823-2.533-2.155-1.566h2.664Z" transform="translate(-113.527 -161.529)" fill="#f0f0f0"/>
    <path id="Path_121" data-name="Path 121" d="M65.438,119.66l.494,1.52h1.6l-1.293.939.494,1.52-1.293-.939-1.293.939.494-1.52-1.293-.939h1.6Z" transform="translate(-63.346 -119.66)" fill="#f0f0f0"/>
  </g>
</svg>
