<svg id="_005-sint-eustatius" data-name="005-sint-eustatius" xmlns="http://www.w3.org/2000/svg" width="30.59" height="30.59" viewBox="0 0 30.59 30.59">
  <path id="SVGCleanerId_0" d="M111.713,446.547a15.3,15.3,0,0,0,17.241,0l-8.621-1.33Z" transform="translate(-105.039 -418.617)" fill="#d80027"/>
  <path id="SVGCleanerId_1" d="M128.954,2.66a15.3,15.3,0,0,0-17.241,0l8.621,1.33Z" transform="translate(-105.039)" fill="#d80027"/>
  <g id="Group_1552" data-name="Group 1552" transform="translate(6.674 26.6)">
    <path id="SVGCleanerId_0_1_" d="M111.713,446.547a15.3,15.3,0,0,0,17.241,0l-8.621-1.33Z" transform="translate(-111.713 -445.217)" fill="#d80027"/>
  </g>
  <g id="Group_1553" data-name="Group 1553" transform="translate(6.674)">
    <path id="SVGCleanerId_1_1_" d="M128.954,2.66a15.3,15.3,0,0,0-17.241,0l8.621,1.33Z" transform="translate(-111.713)" fill="#d80027"/>
  </g>
  <g id="Group_1554" data-name="Group 1554" transform="translate(0.032 2.66)">
    <path id="Path_137" data-name="Path 137" d="M31.057,56.159a16.329,16.329,0,0,0-6.635-11.638H7.18A15.283,15.283,0,0,0,.538,56.159l15.263,1Z" transform="translate(-0.538 -44.521)" fill="#0052b4"/>
    <path id="Path_138" data-name="Path 138" d="M.538,257A15.282,15.282,0,0,0,7.18,268.635H24.421A15.282,15.282,0,0,0,31.064,257L15.8,256Z" transform="translate(-0.538 -243.365)" fill="#0052b4"/>
  </g>
  <path id="Path_139" data-name="Path 139" d="M30.551,45.693H16.293v-12.3H14.3v12.3H.032q-.032.495-.032,1t.032,1H14.3v12.3h1.995v-12.3H30.558q.032-.495.032-1t-.039-1Z" transform="translate(0 -31.396)" fill="#d80027"/>
  <path id="Path_140" data-name="Path 140" d="M100.174,163.91l9.31-5.852,9.31,5.852-9.31,5.852Z" transform="translate(-94.189 -148.615)" fill="#f0f0f0"/>
  <path id="Path_141" data-name="Path 141" d="M166.957,237.729h11.97l-2.66-3.99-1.33,1.33-1.33-.665-1.33,1.995h-2.66l-1.33-1.33Z" transform="translate(-156.982 -219.774)" fill="#6da544"/>
  <path id="Path_142" data-name="Path 142" d="M233.993,189.217l.33,1.016h1.068l-.864.628.33,1.016-.864-.628-.864.628.33-1.016-.864-.628h1.068Z" transform="translate(-218.698 -177.912)" fill="#ffda44"/>
  <path id="Path_143" data-name="Path 143" d="M67.622,130.074,55.652,137.6l11.97,7.524,11.97-7.524ZM59.4,137.6l8.221-5.167,8.221,5.167-8.221,5.167Z" transform="translate(-52.327 -122.303)" fill="#d80027"/>
</svg>
