<svg id="_006-bonaire" data-name="006-bonaire" xmlns="http://www.w3.org/2000/svg" width="30.59" height="30.59" viewBox="0 0 30.59 30.59">
  <circle id="Ellipse_31" data-name="Ellipse 31" cx="15.295" cy="15.295" r="15.295" fill="#f0f0f0"/>
  <path id="Path_144" data-name="Path 144" d="M4.486,4.487A15.26,15.26,0,0,0,.05,16.447L16.447.05A15.26,15.26,0,0,0,4.486,4.487Z" transform="translate(-0.007 -0.007)" fill="#ffda44"/>
  <path id="Path_145" data-name="Path 145" d="M91.41,112.958A15.295,15.295,0,0,0,112.958,91.41Z" transform="translate(-85.949 -85.949)" fill="#0052b4"/>
  <path id="Path_146" data-name="Path 146" d="M89.543,141.31l1.318-.714-1.318-.714A4.658,4.658,0,0,0,85.657,136l-.714-1.318L84.229,136a4.658,4.658,0,0,0-3.886,3.886l-1.318.714,1.318.714a4.658,4.658,0,0,0,3.886,3.886l.714,1.318.714-1.318A4.658,4.658,0,0,0,89.543,141.31Zm-4.6,1.946a2.66,2.66,0,1,1,2.66-2.66A2.66,2.66,0,0,1,84.943,143.256Z" transform="translate(-74.303 -126.631)"/>
  <path id="Path_147" data-name="Path 147" d="M150.9,200.348l.576,1h1.152l-.576,1,.576,1h-1.152l-.576,1-.576-1H149.17l.576-1-.576-1h1.152Z" transform="translate(-140.258 -188.378)" fill="#d80027"/>
</svg>
