<svg xmlns="http://www.w3.org/2000/svg" width="30.59" height="30.59" viewBox="0 0 30.59 30.59">
  <g id="_007-saint-lucia" data-name="007-saint-lucia" transform="translate(-0.002)">
    <g id="Group_1555" data-name="Group 1555" transform="translate(15.296 0.001)">
      <path id="Path_148" data-name="Path 148" d="M240.327,423.993c-.986,1.716-1.92,2.771-3.488,2.771a15.223,15.223,0,0,0,9.406-3.239q-.3.238-.619.459Z" transform="translate(-236.839 -396.174)" fill="#5cb1e3"/>
      <path id="Path_149" data-name="Path 149" d="M383.224,415.87q-.29.251-.592.488Q382.934,416.121,383.224,415.87Z" transform="translate(-373.216 -389.014)" fill="#5cb1e3"/>
      <path id="Path_150" data-name="Path 150" d="M465.421,291.616q-.059.25-.126.5Q465.362,291.866,465.421,291.616Z" transform="translate(-450.541 -272.784)" fill="#5cb1e3"/>
      <path id="Path_151" data-name="Path 151" d="M473.349,236.846q0,.416-.023.826Q473.348,237.262,473.349,236.846Z" transform="translate(-458.053 -221.551)" fill="#5cb1e3"/>
      <path id="Path_152" data-name="Path 152" d="M452.424,326.368q-.121.3-.255.586C452.258,326.76,452.343,326.566,452.424,326.368Z" transform="translate(-438.262 -305.292)" fill="#5cb1e3"/>
      <path id="Path_153" data-name="Path 153" d="M457.507,315.07q-.095.269-.2.535C457.377,315.428,457.443,315.25,457.507,315.07Z" transform="translate(-443.069 -294.723)" fill="#5cb1e3"/>
      <path id="Path_154" data-name="Path 154" d="M472.346,253.674c-.013.186-.027.372-.047.556C472.319,254.046,472.333,253.86,472.346,253.674Z" transform="translate(-457.092 -237.292)" fill="#5cb1e3"/>
      <path id="Path_155" data-name="Path 155" d="M395.685,337.392a15.359,15.359,0,0,1-3.839,5.066A15.34,15.34,0,0,0,395.685,337.392Z" transform="translate(-381.835 -315.604)" fill="#5cb1e3"/>
      <path id="Path_156" data-name="Path 156" d="M470.69,266.893c-.022.17-.043.341-.071.509C470.646,267.234,470.668,267.063,470.69,266.893Z" transform="translate(-455.521 -249.658)" fill="#5cb1e3"/>
      <path id="Path_157" data-name="Path 157" d="M468.38,279.451c-.03.166-.061.331-.1.494C468.318,279.782,468.35,279.616,468.38,279.451Z" transform="translate(-453.336 -261.405)" fill="#5cb1e3"/>
      <path id="Path_158" data-name="Path 158" d="M461.807,303.478c-.05.171-.1.341-.159.509Q461.732,303.735,461.807,303.478Z" transform="translate(-447.129 -283.88)" fill="#5cb1e3"/>
      <path id="Path_159" data-name="Path 159" d="M469.84,274.776c-.016.1-.036.2-.054.3C469.8,274.977,469.823,274.877,469.84,274.776Z" transform="translate(-454.742 -257.032)" fill="#5cb1e3"/>
      <path id="Path_160" data-name="Path 160" d="M460.476,311.361q-.04.12-.081.24C460.423,311.521,460.449,311.441,460.476,311.361Z" transform="translate(-445.957 -291.254)" fill="#5cb1e3"/>
      <path id="Path_161" data-name="Path 161" d="M464.189,299.3c-.025.091-.051.18-.076.27C464.139,299.48,464.165,299.391,464.189,299.3Z" transform="translate(-449.435 -279.972)" fill="#5cb1e3"/>
      <path id="Path_162" data-name="Path 162" d="M467.313,287.1c-.021.1-.044.195-.067.292C467.269,287.3,467.292,287.2,467.313,287.1Z" transform="translate(-452.366 -268.562)" fill="#5cb1e3"/>
      <path id="Path_163" data-name="Path 163" d="M456.2,323.353c-.025.065-.05.13-.077.195C456.148,323.483,456.173,323.418,456.2,323.353Z" transform="translate(-441.96 -302.471)" fill="#5cb1e3"/>
      <path id="Path_164" data-name="Path 164" d="M451.35,335.44c-.019.042-.037.085-.057.126C451.312,335.525,451.33,335.482,451.35,335.44Z" transform="translate(-437.443 -313.778)" fill="#5cb1e3"/>
      <path id="Path_165" data-name="Path 165" d="M391.827,415.827h0Z" transform="translate(-381.817 -388.973)" fill="#5cb1e3"/>
      <path id="Path_166" data-name="Path 166" d="M471.754,262.286c-.01.1-.025.2-.038.3C471.729,262.485,471.743,262.386,471.754,262.286Z" transform="translate(-456.547 -245.348)" fill="#5cb1e3"/>
      <path id="Path_167" data-name="Path 167" d="M473.04,249.643c0,.087-.014.174-.02.26C473.026,249.817,473.035,249.73,473.04,249.643Z" transform="translate(-457.767 -233.522)" fill="#5cb1e3"/>
      <path id="Path_168" data-name="Path 168" d="M250.681,21.8c.02-.042.038-.084.057-.126.089-.193.174-.388.255-.586.026-.065.051-.13.077-.195q.1-.265.2-.535.042-.12.081-.24c.056-.168.109-.338.159-.509.026-.09.052-.179.076-.27.045-.164.086-.33.126-.5.023-.1.046-.194.067-.292.036-.164.067-.329.1-.494.018-.1.037-.2.054-.3.027-.168.049-.339.071-.509.013-.1.027-.2.038-.3.02-.184.034-.37.047-.556.006-.087.015-.173.02-.26q.022-.41.023-.826A15.3,15.3,0,0,0,236.831.009c4.538,0,5.778,8.6,5.44,16.773l4.569,10.082h0A15.356,15.356,0,0,0,250.681,21.8Z" transform="translate(-236.831 -0.009)" fill="#5cb1e3"/>
    </g>
    <g id="Group_1556" data-name="Group 1556" transform="translate(24.703 26.855)">
      <path id="Path_169" data-name="Path 169" d="M382.5,423.424l-.009.007Z" transform="translate(-382.496 -422.935)" fill="#f8fbfb"/>
      <path id="Path_170" data-name="Path 170" d="M391.8,415.849h0Z" transform="translate(-391.2 -415.848)" fill="#f8fbfb"/>
    </g>
    <path id="Path_171" data-name="Path 171" d="M325.038,245.873c-.041.984-.117,1.959-.228,2.907l3.3,8.855h-.338l.144.17q.316-.221.619-.459l.009-.007q.3-.237.592-.488h0Z" transform="translate(-303.832 -229.995)" fill="#e4e4e4"/>
    <path id="Path_172" data-name="Path 172" d="M322.235,307.62h.338l-3.139-8.312c-.134,1.137-.308,2.489-.543,3.522Z" transform="translate(-298.294 -279.979)" fill="#0b0b0b"/>
    <path id="Path_173" data-name="Path 173" d="M291.467,358.814l5.259-.009-.144-.17-3.345-4.789A19.556,19.556,0,0,1,291.467,358.814Z" transform="translate(-272.642 -330.995)" fill="#f8d12e"/>
    <g id="Group_1557" data-name="Group 1557" transform="translate(0.002 15.296)">
      <path id="Path_174" data-name="Path 174" d="M25.273,341.724a15.332,15.332,0,0,1-2.717-3.977A15.305,15.305,0,0,0,25.273,341.724Z" transform="translate(-21.099 -331.231)" fill="#fff"/>
      <path id="Path_175" data-name="Path 175" d="M83.393,417.141q-.3-.233-.589-.481Q83.092,416.908,83.393,417.141Z" transform="translate(-77.457 -405.048)" fill="#fff"/>
      <path id="Path_176" data-name="Path 176" d="M74.207,408.9q-.3-.26-.592-.535Q73.9,408.637,74.207,408.9Z" transform="translate(-68.861 -397.285)" fill="#fff"/>
      <path id="Path_177" data-name="Path 177" d="M17.967,327.319q-.143-.308-.273-.623C17.78,326.906,17.872,327.114,17.967,327.319Z" transform="translate(-16.551 -320.893)" fill="#fff"/>
      <path id="Path_178" data-name="Path 178" d="M65.35,400.073q-.286-.272-.557-.559Q65.064,399.8,65.35,400.073Z" transform="translate(-60.609 -389.009)" fill="#fff"/>
      <path id="Path_179" data-name="Path 179" d="M4.03,280.111c-.036-.164-.067-.33-.1-.5C3.962,279.781,3.994,279.947,4.03,280.111Z" transform="translate(-3.678 -276.853)" fill="#fff"/>
      <path id="Path_180" data-name="Path 180" d="M.718,254.3c-.02-.185-.034-.371-.047-.557C.684,253.931.7,254.118.718,254.3Z" transform="translate(-0.628 -252.654)" fill="#fff"/>
      <path id="Path_181" data-name="Path 181" d="M.025,237.675C.01,237.4,0,237.124,0,236.846,0,237.124.011,237.4.025,237.675Z" transform="translate(-0.002 -236.846)" fill="#fff"/>
      <path id="Path_182" data-name="Path 182" d="M13.591,315.9c-.072-.182-.141-.365-.206-.55C13.45,315.539,13.519,315.723,13.591,315.9Z" transform="translate(-12.521 -310.284)" fill="#fff"/>
    </g>
    <path id="Path_183" data-name="Path 183" d="M114.026,430.776l-12.573.022a15.218,15.218,0,0,0,8.743,2.749C111.764,433.547,113.04,432.492,114.026,430.776Z" transform="translate(-94.899 -402.956)" fill="#6cc4ee"/>
    <g id="Group_1558" data-name="Group 1558" transform="translate(0.025 16.125)">
      <path id="Path_184" data-name="Path 184" d="M2.055,267.531c-.027-.169-.05-.339-.071-.51C2.006,267.191,2.028,267.362,2.055,267.531Z" transform="translate(-1.879 -265.902)" fill="#fff"/>
      <path id="Path_185" data-name="Path 185" d="M92.553,424.568q-.313-.218-.614-.452Q92.24,424.35,92.553,424.568Z" transform="translate(-86.025 -412.851)" fill="#fff"/>
      <path id="Path_186" data-name="Path 186" d="M9.808,304.244q-.085-.255-.162-.516C9.7,303.9,9.751,304.073,9.808,304.244Z" transform="translate(-9.046 -300.238)" fill="#fff"/>
      <path id="Path_187" data-name="Path 187" d="M6.617,292.325q-.068-.248-.127-.5Q6.549,292.077,6.617,292.325Z" transform="translate(-6.094 -289.105)" fill="#fff"/>
      <path id="Path_188" data-name="Path 188" d="M5.514,287.592c-.023-.1-.046-.194-.067-.292C5.468,287.4,5.491,287.495,5.514,287.592Z" transform="translate(-5.119 -284.871)" fill="#fff"/>
      <path id="Path_189" data-name="Path 189" d="M1.431,262.672c-.013-.1-.027-.2-.038-.3C1.4,262.473,1.418,262.572,1.431,262.672Z" transform="translate(-1.326 -261.553)" fill="#fff"/>
      <path id="Path_190" data-name="Path 190" d="M8.54,299.827c-.026-.089-.052-.179-.076-.269C8.488,299.648,8.514,299.738,8.54,299.827Z" transform="translate(-7.941 -296.337)" fill="#fff"/>
      <path id="Path_191" data-name="Path 191" d="M82.777,416.645h0Z" transform="translate(-77.455 -405.863)" fill="#fff"/>
      <path id="Path_192" data-name="Path 192" d="M12.235,311.943c-.027-.078-.053-.156-.079-.235C12.182,311.787,12.208,311.865,12.235,311.943Z" transform="translate(-11.394 -307.703)" fill="#fff"/>
      <path id="Path_193" data-name="Path 193" d="M.381,249.95c-.006-.088-.015-.175-.02-.262C.366,249.776.375,249.862.381,249.95Z" transform="translate(-0.361 -249.688)" fill="#fff"/>
      <path id="Path_194" data-name="Path 194" d="M3.141,275.219c-.019-.1-.038-.2-.054-.3C3.1,275.017,3.123,275.117,3.141,275.219Z" transform="translate(-2.911 -273.286)" fill="#fff"/>
      <path id="Path_195" data-name="Path 195" d="M73.426,408.176l-.013-.013Z" transform="translate(-68.695 -397.929)" fill="#fff"/>
      <path id="Path_196" data-name="Path 196" d="M16.652,324.053c-.025-.06-.048-.122-.072-.183C16.6,323.931,16.627,323.992,16.652,324.053Z" transform="translate(-15.533 -319.079)" fill="#fff"/>
      <path id="Path_197" data-name="Path 197" d="M64.632,399.339l-.011-.012Z" transform="translate(-60.471 -389.663)" fill="#fff"/>
      <path id="Path_198" data-name="Path 198" d="M21.96,336.428c-.014-.03-.027-.061-.041-.091C21.933,336.367,21.946,336.4,21.96,336.428Z" transform="translate(-20.527 -330.741)" fill="#fff"/>
    </g>
    <path id="Path_199" data-name="Path 199" d="M.006,15.3c0,.278.008.555.023.829,0,.088.014.175.02.262.013.186.027.373.047.557.011.1.025.2.038.3.022.171.044.341.071.51.016.1.036.2.054.3.03.166.062.332.1.5.021.1.044.195.067.292q.059.251.127.5c.025.09.05.18.076.269q.076.26.162.516c.026.079.052.157.079.235.065.185.135.368.206.55.024.061.047.122.072.183q.129.315.273.623c.014.03.027.061.041.091a15.334,15.334,0,0,0,2.717,3.977l.011.012q.271.287.557.559l.013.013q.289.275.592.535h0L15.3.271,21.6,17c.338-8.172-1.761-17-6.3-17A15.3,15.3,0,0,0,.006,15.3Z" transform="translate(-0.004)" fill="#6cc4ee"/>
    <g id="Group_1559" data-name="Group 1559" transform="translate(5.348 0.271)">
      <path id="Path_200" data-name="Path 200" d="M101.445,431.113h0Z" transform="translate(-100.24 -403.543)" fill="#fff"/>
      <path id="Path_201" data-name="Path 201" d="M91.929,424.109h0Z" transform="translate(-91.338 -396.991)" fill="#fff"/>
      <path id="Path_202" data-name="Path 202" d="M82.789,416.652h0Z" transform="translate(-82.789 -390.016)" fill="#fff"/>
      <path id="Path_203" data-name="Path 203" d="M82.789,30.832h0q.289.248.589.481h0q.3.234.614.452h0l.169-.2h-.314l8.9-23.828,6.06,16.1c.111-.949.188-1.923.228-2.907L92.738,4.2Z" transform="translate(-82.789 -4.196)" fill="#fff"/>
    </g>
    <path id="Path_204" data-name="Path 204" d="M99.2,82.868h.314l8.575-12.345L113.6,78.4a31.158,31.158,0,0,0,.553-3.268l-6.06-16.1Z" transform="translate(-92.79 -55.227)" fill="#151515"/>
    <path id="Path_205" data-name="Path 205" d="M101.453,431.12Z" transform="translate(-94.899 -403.278)" fill="#fff"/>
    <path id="Path_206" data-name="Path 206" d="M110.2,236.846l-8.575,12.345-.169.2h0l12.573-.022a17.082,17.082,0,0,0,1.688-4.644Z" transform="translate(-94.903 -221.55)" fill="#f8d648"/>
  </g>
</svg>
