<svg id="_008-saint-kitts-and-nevis" data-name="008-saint-kitts-and-nevis" xmlns="http://www.w3.org/2000/svg" width="30.59" height="30.59" viewBox="0 0 30.59 30.59">
  <circle id="Ellipse_32" data-name="Ellipse 32" cx="15.295" cy="15.295" r="15.295" transform="translate(0 0)" fill="#ffda44"/>
  <path id="Path_207" data-name="Path 207" d="M47.952,69.583A15.383,15.383,0,0,0,50,71.3L71.3,50a15.428,15.428,0,0,0-3.762-3.762l-21.3,21.3a15.376,15.376,0,0,0,1.717,2.044Z" transform="translate(-43.473 -43.473)"/>
  <path id="Path_208" data-name="Path 208" d="M4.489,4.491A15.3,15.3,0,0,0,1.709,22.319L22.317,1.71A15.3,15.3,0,0,0,4.489,4.491Z" transform="translate(-0.01 -0.011)" fill="#6da544"/>
  <path id="Path_209" data-name="Path 209" d="M156.448,156.45a15.3,15.3,0,0,0,2.781-17.828L138.62,159.231A15.3,15.3,0,0,0,156.448,156.45Z" transform="translate(-130.338 -130.34)" fill="#d80027"/>
  <g id="Group_1560" data-name="Group 1560" transform="translate(9.319 9.319)">
    <path id="Path_210" data-name="Path 210" d="M156.388,295.626l1.428.728,1.133-1.133L158.7,296.8l1.428.728-1.583.251-.251,1.583-.727-1.428-1.583.251,1.133-1.133Z" transform="translate(-155.982 -286.901)" fill="#f0f0f0"/>
    <path id="Path_211" data-name="Path 211" d="M295.625,156.389l1.428.728,1.133-1.133-.251,1.583,1.428.728-1.583.251-.251,1.583L296.8,158.7l-1.583.251,1.133-1.133Z" transform="translate(-286.9 -155.983)" fill="#f0f0f0"/>
  </g>
</svg>
