<svg id="_009-islas-virgenes-britanicas" data-name="009-islas-virgenes-britanicas" xmlns="http://www.w3.org/2000/svg" width="30.59" height="30.59" viewBox="0 0 30.59 30.59">
  <path id="Path_212" data-name="Path 212" d="M30.59,15.3A15.3,15.3,0,0,1,0,15.3S15.3,0,15.3,0A15.3,15.3,0,0,1,30.59,15.3Z" fill="#0052b4"/>
  <g id="Group_1561" data-name="Group 1561">
    <path id="Path_213" data-name="Path 213" d="M255.96,0h0Z" transform="translate(-240.665)" fill="#f0f0f0"/>
    <path id="Path_214" data-name="Path 214" d="M255.315,255.356h.041v-.041Z" transform="translate(-240.061 -240.061)" fill="#f0f0f0"/>
    <path id="Path_215" data-name="Path 215" d="M15.3,7.98V0h0A15.3,15.3,0,0,0,0,15.3H7.98V10.8L12.474,15.3h2.781l.041-.041v-2.78L10.8,7.98Z" fill="#f0f0f0"/>
  </g>
  <path id="Path_216" data-name="Path 216" d="M39.134,33.391a15.368,15.368,0,0,0-5.743,5.743v7.557h3.99v-9.31h9.31v-3.99Z" transform="translate(-31.396 -31.396)" fill="#d80027"/>
  <path id="Path_217" data-name="Path 217" d="M302.245,256l-4.134,4.134a4.654,4.654,0,0,0,8.268,0Z" transform="translate(-280.3 -240.705)" fill="#ffda44"/>
  <path id="Path_218" data-name="Path 218" d="M140.88,139l-5.434-5.434h-1.881l7.315,7.315h0Z" transform="translate(-125.585 -125.586)" fill="#d80027"/>
  <path id="Path_219" data-name="Path 219" d="M289.391,133.565v7.315h0c0,3.563,4.655,4.655,4.655,4.655s4.655-1.092,4.655-4.655h0v-7.315Z" transform="translate(-272.101 -125.585)" fill="#6da544"/>
  <g id="Group_1562" data-name="Group 1562" transform="translate(17.29 15.295)">
    <path id="Path_220" data-name="Path 220" d="M445.217,256h0Z" transform="translate(-435.907 -255.999)" fill="#496e2d"/>
    <path id="Path_221" data-name="Path 221" d="M289.391,256h0Z" transform="translate(-289.391 -255.999)" fill="#496e2d"/>
  </g>
  <path id="Path_222" data-name="Path 222" d="M350.609,189.217H352.6v5.32h-1.995Z" transform="translate(-329.661 -177.912)" fill="#f0f0f0"/>
  <circle id="Ellipse_33" data-name="Ellipse 33" cx="0.998" cy="0.998" r="0.998" transform="translate(20.947 10.307)" fill="#a2001d"/>
  <g id="Group_1563" data-name="Group 1563" transform="translate(18.62 9.31)">
    <path id="Path_223" data-name="Path 223" d="M311.652,155.826h1.33v1.33h-1.33Z" transform="translate(-311.652 -155.826)" fill="#ffda44"/>
    <path id="Path_224" data-name="Path 224" d="M311.652,205.913h1.33v1.33h-1.33Z" transform="translate(-311.652 -202.92)" fill="#ffda44"/>
    <path id="Path_225" data-name="Path 225" d="M311.652,256h1.33v1.33h-1.33Z" transform="translate(-311.652 -250.015)" fill="#ffda44"/>
    <path id="Path_226" data-name="Path 226" d="M400.7,155.826h1.33v1.33H400.7Z" transform="translate(-395.376 -155.826)" fill="#ffda44"/>
    <path id="Path_227" data-name="Path 227" d="M400.7,205.913h1.33v1.33H400.7Z" transform="translate(-395.376 -202.92)" fill="#ffda44"/>
    <path id="Path_228" data-name="Path 228" d="M400.7,256h1.33v1.33H400.7Z" transform="translate(-395.376 -250.015)" fill="#ffda44"/>
  </g>
</svg>
