<svg xmlns="http://www.w3.org/2000/svg" width="30.59" height="30.59" viewBox="0 0 30.59 30.59">
  <g id="_010-saint-vincent-and-the-grenadines" data-name="010-saint-vincent-and-the-grenadines" transform="translate(-0.002)">
    <path id="Path_229" data-name="Path 229" d="M0,49.625a15.28,15.28,0,0,0,7.12,12.924V36.7A15.281,15.281,0,0,0,0,49.625Z" transform="translate(0 -34.33)" fill="#2174ba"/>
    <path id="Path_230" data-name="Path 230" d="M363.421,36.7V62.549a15.29,15.29,0,0,0,0-25.849Z" transform="translate(-339.949 -34.33)" fill="#1c8c44"/>
    <path id="Path_231" data-name="Path 231" d="M227.289.15l.1,0Z" transform="translate(-212.609 -0.137)" fill="#fbd015"/>
    <path id="Path_232" data-name="Path 232" d="M236.836,0c3.506,0,5.555,5.269,6.151,11.432l.17,2.83c.2,7.976-1.907,16.328-6.321,16.328a15.219,15.219,0,0,0,8.175-2.371V2.37A15.219,15.219,0,0,0,236.836,0Z" transform="translate(-221.539)" fill="#f3c715"/>
    <path id="Path_233" data-name="Path 233" d="M227.394,473.475l-.1,0Z" transform="translate(-212.61 -442.894)" fill="#fbd015"/>
    <path id="Path_234" data-name="Path 234" d="M332.956,178.59l-.88-1.566c.09.928.147,1.876.17,2.83Z" transform="translate(-310.629 -165.592)" fill="#1c8c44"/>
    <g id="Group_1564" data-name="Group 1564" transform="translate(14.785)">
      <path id="Path_235" data-name="Path 235" d="M228.9.009c.17-.006.341-.009.512-.009C229.247,0,229.077,0,228.9.009Z" transform="translate(-228.905)" fill="#1a9647"/>
      <path id="Path_236" data-name="Path 236" d="M229.417,473.54c-.171,0-.342,0-.512-.009C229.077,473.537,229.247,473.54,229.417,473.54Z" transform="translate(-228.905 -442.95)" fill="#1a9647"/>
    </g>
    <path id="Path_237" data-name="Path 237" d="M124.755,14.262,122.2,18.809,118.937,13,122.2,7.188l2.384,4.244C123.989,5.269,121.94,0,118.434,0c-.171,0-.342,0-.512.009l-.1,0A15.209,15.209,0,0,0,110.26,2.37V28.219a15.21,15.21,0,0,0,7.558,2.358l.1,0c.17.006.341.009.512.009C122.848,30.59,124.954,22.238,124.755,14.262Z" transform="translate(-103.138)" fill="#ffd52b"/>
    <g id="Group_1565" data-name="Group 1565" transform="translate(8.317 7.188)">
      <path id="Path_238" data-name="Path 238" d="M244.619,117.115l3.264,5.81,2.555-4.547c-.024-.954-.08-1.9-.17-2.83l-2.384-4.244Z" transform="translate(-237.137 -111.304)" fill="#1a9647"/>
      <path id="Path_239" data-name="Path 239" d="M132.027,111.305l-3.264,5.811,3.264,5.81,3.264-5.81Z" transform="translate(-128.763 -111.305)" fill="#1a9647"/>
      <path id="Path_240" data-name="Path 240" d="M190.368,209.906l-3.264,5.81,3.264,5.811,3.264-5.811Z" transform="translate(-183.336 -203.538)" fill="#1a9647"/>
    </g>
  </g>
</svg>
