<svg xmlns="http://www.w3.org/2000/svg" width="30.59" height="30.59" viewBox="0 0 30.59 30.59">
  <g id="_011-grenada" data-name="011-grenada" transform="translate(0)">
    <circle id="Ellipse_34" data-name="Ellipse 34" cx="15.295" cy="15.295" r="15.295" transform="translate(0)" fill="#ffda44"/>
    <path id="Path_241" data-name="Path 241" d="M111.713,2.66a15.3,15.3,0,0,1,17.241,0l-8.621.665Z" transform="translate(-105.039)" fill="#a2001d"/>
    <path id="Path_242" data-name="Path 242" d="M236.559,240.638l-.976-.976-.259.464Z" transform="translate(-221.265 -225.343)" fill="#0052b4"/>
    <g id="Group_1566" data-name="Group 1566" transform="translate(0 4.48)">
      <path id="Path_243" data-name="Path 243" d="M4.479,74.98a15.3,15.3,0,0,0,0,21.63L15.295,85.8Z" transform="translate(0 -74.98)" fill="#496e2d"/>
      <path id="Path_244" data-name="Path 244" d="M266.815,74.98a15.3,15.3,0,0,1,0,21.63L256,85.8Z" transform="translate(-240.705 -74.98)" fill="#496e2d"/>
    </g>
    <circle id="Ellipse_35" data-name="Ellipse 35" cx="5.32" cy="5.32" r="5.32" transform="translate(9.975 9.975)" fill="#a2001d"/>
    <g id="Group_1567" data-name="Group 1567" transform="translate(10.243)">
      <path id="Path_245" data-name="Path 245" d="M176.5,166.957l1.192,3.67h3.859l-3.122,2.269,1.192,3.67L176.5,174.3l-3.122,2.268,1.193-3.67-3.122-2.269H175.3Z" transform="translate(-171.444 -156.982)" fill="#ffda44"/>
      <path id="Path_246" data-name="Path 246" d="M255.919,0h0Z" transform="translate(-250.867)" fill="#ffda44"/>
    </g>
    <g id="Group_1568" data-name="Group 1568" transform="translate(4.48)">
      <path id="Path_247" data-name="Path 247" d="M85.814,0H85.8A15.247,15.247,0,0,0,74.994,4.479H96.623A15.247,15.247,0,0,0,85.814,0Z" transform="translate(-74.994)" fill="#a2001d"/>
      <path id="Path_248" data-name="Path 248" d="M75,437.033a15.295,15.295,0,0,0,21.629,0Z" transform="translate(-74.995 -410.922)" fill="#a2001d"/>
    </g>
    <g id="Group_1569" data-name="Group 1569" transform="translate(1.994 1.662)">
      <path id="Path_249" data-name="Path 249" d="M239.494,27.826l.248.762h.8l-.648.471.248.762-.648-.471-.648.471.248-.762-.648-.471h.8Z" transform="translate(-226.194 -27.826)" fill="#ffda44"/>
      <path id="Path_250" data-name="Path 250" d="M177.417,27.826l.248.762h.8l-.648.471.248.762-.648-.471-.648.471.248-.762-.648-.471h.8Z" transform="translate(-167.826 -27.826)" fill="#ffda44"/>
      <path id="Path_251" data-name="Path 251" d="M301.571,27.826l.248.762h.8l-.648.471.248.762-.648-.471-.648.471.248-.762-.648-.471h.8Z" transform="translate(-284.562 -27.826)" fill="#ffda44"/>
      <path id="Path_252" data-name="Path 252" d="M239.494,450.783l.248.762h.8l-.648.471.248.762-.648-.471-.648.471.248-.762-.648-.471h.8Z" transform="translate(-226.194 -425.513)" fill="#ffda44"/>
      <path id="Path_253" data-name="Path 253" d="M177.417,450.783l.248.762h.8l-.648.471.248.762-.648-.471-.648.471.248-.762-.648-.471h.8Z" transform="translate(-167.826 -425.513)" fill="#ffda44"/>
      <path id="Path_254" data-name="Path 254" d="M301.571,450.783l.248.762h.8l-.648.471.248.762-.648-.471-.648.471.248-.762-.648-.471h.8Z" transform="translate(-284.562 -425.513)" fill="#ffda44"/>
      <path id="Path_255" data-name="Path 255" d="M36.056,227.6a1.33,1.33,0,0,1-2.248,1.423,4.644,4.644,0,0,1-.3-2.959,4.644,4.644,0,0,1,2.546,1.536Z" transform="translate(-33.391 -214.216)" fill="#ffda44"/>
    </g>
    <circle id="Ellipse_36" data-name="Ellipse 36" cx="0.665" cy="0.665" r="0.665" transform="translate(3.227 15.651)" fill="#a2001d"/>
  </g>
</svg>
