<svg id="turks-and-caicos" xmlns="http://www.w3.org/2000/svg" width="30.59" height="30.59" viewBox="0 0 30.59 30.59">
  <path id="Path_256" data-name="Path 256" d="M30.59,15.3A15.3,15.3,0,0,1,0,15.3S15.3,0,15.3,0A15.3,15.3,0,0,1,30.59,15.3Z" fill="#0052b4"/>
  <g id="Group_1570" data-name="Group 1570">
    <path id="Path_257" data-name="Path 257" d="M255.96,0h0Z" transform="translate(-240.665)" fill="#f0f0f0"/>
    <path id="Path_258" data-name="Path 258" d="M255.315,255.356h.041v-.041Z" transform="translate(-240.061 -240.061)" fill="#f0f0f0"/>
    <path id="Path_259" data-name="Path 259" d="M15.3,7.98V0h0A15.3,15.3,0,0,0,0,15.3H7.98V10.8L12.474,15.3h2.781l.041-.041v-2.78L10.8,7.98Z" fill="#f0f0f0"/>
  </g>
  <g id="Group_1571" data-name="Group 1571" transform="translate(1.995 1.995)">
    <path id="Path_260" data-name="Path 260" d="M39.134,33.391a15.368,15.368,0,0,0-5.743,5.743v7.557h3.99v-9.31h9.31v-3.99Z" transform="translate(-33.391 -33.391)" fill="#d80027"/>
    <path id="Path_261" data-name="Path 261" d="M140.88,139l-5.434-5.434h-1.881l7.315,7.315h0Z" transform="translate(-127.58 -127.581)" fill="#d80027"/>
  </g>
  <path id="Path_262" data-name="Path 262" d="M289.391,133.565v7.315c0,3.563,4.655,4.655,4.655,4.655s4.655-1.092,4.655-4.655v-7.315Z" transform="translate(-272.101 -125.585)" fill="#ffda44"/>
  <path id="Path_263" data-name="Path 263" d="M314.312,157.156c0,.735-.6,2.66-1.33,2.66s-1.33-1.925-1.33-2.66,1.33-1.33,1.33-1.33S314.312,156.421,314.312,157.156Z" transform="translate(-293.032 -146.516)" fill="#ff9811"/>
  <path id="Path_264" data-name="Path 264" d="M394.886,158.6a5.51,5.51,0,0,0,.382-1.67c0-.612-.8-1.108-.8-1.108s-.8.5-.8,1.108a5.51,5.51,0,0,0,.382,1.67l-.461,1.04a2.332,2.332,0,0,0,1.754,0Z" transform="translate(-370.076 -146.516)" fill="#a2001d"/>
  <path id="Path_265" data-name="Path 265" d="M340.144,245.535a6.879,6.879,0,0,0-.665,2.66H342.8a6.879,6.879,0,0,0-.665-2.66l-1-.665Z" transform="translate(-319.196 -230.24)" fill="#6da544"/>
  <path id="Path_266" data-name="Path 266" d="M352.6,235.069v-.332a1,1,0,0,0-2,0v.332Z" transform="translate(-329.661 -219.774)" fill="#d80027"/>
</svg>
