<svg xmlns="http://www.w3.org/2000/svg" xmlns:xlink="http://www.w3.org/1999/xlink" width="51.715" height="53" viewBox="0 0 51.715 53">
  <defs>
    <linearGradient id="linear-gradient" x1="0.5" x2="0.5" y2="1" gradientUnits="objectBoundingBox">
      <stop offset="0" stop-color="#21b1e2"/>
      <stop offset="1" stop-color="#1d86c8"/>
    </linearGradient>
  </defs>
  <g id="Ico-" transform="translate(-425 -993)">
    <path id="shape" d="M-879.448,1461.751s-10.656-11.116-3.794-22.849a55.121,55.121,0,0,1,16.456-17.679s9.818-7.214,19.466.587,10.762,10.861,11.4,12.195,3.909,5.035.7,13.965-17.853,20.171-17.853,20.171-9.711,7.673-21.228-1.352C-878.514,1463.148-879.448,1461.751-879.448,1461.751Z" transform="translate(1310.546 -425.184)" fill="url(#linear-gradient)"/>
    <path id="Title" d="M23.22,17.06H18.86l2.24-2.08a5.184,5.184,0,0,0,1.98-3.96,4.456,4.456,0,0,0-1.3-3.28,5.107,5.107,0,0,0-3.76-1.38A5.091,5.091,0,0,0,14.24,7.8a5.306,5.306,0,0,0-1.48,3.7h3.58a3.308,3.308,0,0,1,.48-1.64,1.433,1.433,0,0,1,1.16-.54,1.313,1.313,0,0,1,.98.4,2.006,2.006,0,0,1,.4,1.28,3.755,3.755,0,0,1-.72,2.08,22.092,22.092,0,0,1-2.74,3.38L12.52,20h10.7Z" transform="translate(433 1006.64)" fill="#fff"/>
  </g>
</svg>
