<svg xmlns="http://www.w3.org/2000/svg" xmlns:xlink="http://www.w3.org/1999/xlink" width="51.715" height="53" viewBox="0 0 51.715 53">
  <defs>
    <linearGradient id="linear-gradient" x1="0.5" x2="0.5" y2="1" gradientUnits="objectBoundingBox">
      <stop offset="0" stop-color="#21b1e2"/>
      <stop offset="1" stop-color="#1d86c8"/>
    </linearGradient>
  </defs>
  <g id="Ico-" transform="translate(-425 -993)">
    <path id="shape" d="M-879.448,1461.751s-10.656-11.116-3.794-22.849a55.121,55.121,0,0,1,16.456-17.679s9.818-7.214,19.466.587,10.762,10.861,11.4,12.195,3.909,5.035.7,13.965-17.853,20.171-17.853,20.171-9.711,7.673-21.228-1.352C-878.514,1463.148-879.448,1461.751-879.448,1461.751Z" transform="translate(1310.546 -425.184)" fill="url(#linear-gradient)"/>
    <path id="Title" d="M21.88,6.66H17.36l-5.14,8.6v2.22h6.46V20h3.2V17.48H23.5V14.82H21.88Zm-6.34,8.16,3.14-5.44v5.44Z" transform="translate(433 1006.34)" fill="#fff"/>
  </g>
</svg>
