<svg xmlns="http://www.w3.org/2000/svg" xmlns:xlink="http://www.w3.org/1999/xlink" width="51.715" height="53" viewBox="0 0 51.715 53">
  <defs>
    <linearGradient id="linear-gradient" x1="0.5" x2="0.5" y2="1" gradientUnits="objectBoundingBox">
      <stop offset="0" stop-color="#21b1e2"/>
      <stop offset="1" stop-color="#1d86c8"/>
    </linearGradient>
  </defs>
  <g id="Ico-" transform="translate(-425 -993)">
    <path id="shape" d="M-879.448,1461.751s-10.656-11.116-3.794-22.849a55.121,55.121,0,0,1,16.456-17.679s9.818-7.214,19.466.587,10.762,10.861,11.4,12.195,3.909,5.035.7,13.965-17.853,20.171-17.853,20.171-9.711,7.673-21.228-1.352C-878.514,1463.148-879.448,1461.751-879.448,1461.751Z" transform="translate(1310.546 -425.184)" fill="url(#linear-gradient)"/>
    <path id="Title" d="M12.56,15.44a5.322,5.322,0,0,0,1.66,3.48,5.392,5.392,0,0,0,3.82,1.38,5.47,5.47,0,0,0,3.98-1.42,4.016,4.016,0,0,0,1.18-2.92A3.371,3.371,0,0,0,22.64,14a3.264,3.264,0,0,0-1.58-1.22,2.287,2.287,0,0,0,1.02-1.02,3.212,3.212,0,0,0,.4-1.64A3.626,3.626,0,0,0,21.4,7.54a4.634,4.634,0,0,0-3.32-1.18,4.623,4.623,0,0,0-3.52,1.3,4.741,4.741,0,0,0-1.3,3.06h3.22a1.68,1.68,0,0,1,.46-1.18,1.356,1.356,0,0,1,.96-.34,1.434,1.434,0,0,1,.98.36,1.48,1.48,0,0,1,.36.96,1.252,1.252,0,0,1-.44.94,1.7,1.7,0,0,1-1.42.34v2.34a1.77,1.77,0,0,1,.58-.08,2.1,2.1,0,0,1,1.28.38,1.528,1.528,0,0,1,.52,1.18,1.565,1.565,0,0,1-.4,1.1A1.774,1.774,0,0,1,18,17.3a1.837,1.837,0,0,1-1.36-.52,2.077,2.077,0,0,1-.54-1.34Z" transform="translate(433 1006.64)" fill="#fff"/>
  </g>
</svg>
