<svg xmlns="http://www.w3.org/2000/svg" xmlns:xlink="http://www.w3.org/1999/xlink" width="51.715" height="53" viewBox="0 0 51.715 53">
  <defs>
    <linearGradient id="linear-gradient" x1="0.5" x2="0.5" y2="1" gradientUnits="objectBoundingBox">
      <stop offset="0" stop-color="#21b1e2"/>
      <stop offset="1" stop-color="#1d86c8"/>
    </linearGradient>
  </defs>
  <g id="Ico-" transform="translate(-425 -993)">
    <path id="shape" d="M-879.448,1461.751s-10.656-11.116-3.794-22.849a55.121,55.121,0,0,1,16.456-17.679s9.818-7.214,19.466.587,10.762,10.861,11.4,12.195,3.909,5.035.7,13.965-17.853,20.171-17.853,20.171-9.711,7.673-21.228-1.352C-878.514,1463.148-879.448,1461.751-879.448,1461.751Z" transform="translate(1310.546 -425.184)" fill="url(#linear-gradient)"/>
    <path id="Title" d="M21.9,6.66H14.96L13.8,13.84a5.373,5.373,0,0,1,2.46-.56,3.843,3.843,0,0,1,2.4.66,1.883,1.883,0,0,1,.64,1.44,1.993,1.993,0,0,1-.52,1.36,2.4,2.4,0,0,1-1.74.66,4.957,4.957,0,0,1-2-.46,6.464,6.464,0,0,1-1.6-1.08l-.52,3.24a8.1,8.1,0,0,0,4.5,1.2,5.559,5.559,0,0,0,4.16-1.5,4.663,4.663,0,0,0,1.28-3.34,4.342,4.342,0,0,0-1.22-3.16,4.742,4.742,0,0,0-3.52-1.32,7.431,7.431,0,0,0-1.08.1l.24-1.48H21.9Z" transform="translate(433 1006.34)" fill="#fff"/>
  </g>
</svg>
