<svg xmlns="http://www.w3.org/2000/svg" width="38.703" height="27.645" viewBox="0 0 38.703 27.645">
  <path id="Icon-play" d="M28.216,20.433a1.243,1.243,0,0,0-.648-1.166L19.51,13.355a1.3,1.3,0,0,0-1.4-.043,1.287,1.287,0,0,0-.713,1.209V26.344a1.287,1.287,0,0,0,.713,1.209,1.494,1.494,0,0,0,.67.173,1.23,1.23,0,0,0,.734-.216L27.568,21.6a1.243,1.243,0,0,0,.648-1.166Zm13.058,0q0,2.073-.022,3.24t-.184,2.948a23.891,23.891,0,0,1-.486,3.186,5.053,5.053,0,0,1-1.49,2.657,4.554,4.554,0,0,1-2.678,1.253,141.6,141.6,0,0,1-14.492.54,141.6,141.6,0,0,1-14.492-.54,4.6,4.6,0,0,1-2.689-1.253,5.021,5.021,0,0,1-1.5-2.657,26.735,26.735,0,0,1-.464-3.186q-.162-1.782-.184-2.948t-.022-3.24q0-2.073.022-3.24t.184-2.948a23.89,23.89,0,0,1,.486-3.186A5.052,5.052,0,0,1,4.752,8.4,4.554,4.554,0,0,1,7.43,7.15a141.6,141.6,0,0,1,14.492-.54,141.594,141.594,0,0,1,14.492.54A4.6,4.6,0,0,1,39.1,8.4a5.021,5.021,0,0,1,1.5,2.657,26.733,26.733,0,0,1,.464,3.186q.162,1.782.184,2.948T41.274,20.433Z" transform="translate(-2.571 -6.61)" fill="#b7b7b7"/>
</svg>
