<svg xmlns="http://www.w3.org/2000/svg" width="353.046" height="19.559" viewBox="0 0 353.046 19.559">
  <g id="logos" transform="translate(-405.836 -58)">
    <g id="logo-flow" transform="translate(405.836 58)">
      <g id="Flow_Business" transform="translate(0 0)">
        <path id="Trazado_130" data-name="Trazado 130" d="M60.183,9.621a1.676,1.676,0,0,1,0-.185v-.67a7.92,7.92,0,0,0-1.621-4.89A7.817,7.817,0,0,0,52.578,1a10.764,10.764,0,0,0-7.29,2.5,11.838,11.838,0,0,0-2.36,2.64,10.5,10.5,0,0,0-1.648,3.878v.055c-.048.246-.089.493-.123.732a.6.6,0,0,1,0,.109,1.5,1.5,0,0,1-.048.458,1.684,1.684,0,0,1,0,.191v.663a7.919,7.919,0,0,0,1.621,4.89,7.8,7.8,0,0,0,6.039,2.872A10.793,10.793,0,0,0,56.06,17.5a12,12,0,0,0,2.36-2.64,10.423,10.423,0,0,0,1.647-3.885v-.047c.048-.253.089-.493.123-.738a.527.527,0,0,1,0-.1C60.183,9.929,60.183,9.771,60.183,9.621ZM46.567,14.408a4.992,4.992,0,0,1-.771-4.1v-.048A6.073,6.073,0,0,1,51.835,5.2h.178a3.761,3.761,0,0,1,2.7,1.416,4.965,4.965,0,0,1,.771,4.1v.055A6.094,6.094,0,0,1,49.44,15.83h-.171a3.782,3.782,0,0,1-2.674-1.45Z" transform="translate(-13.857 -0.99)" fill="#fff"/>
        <path id="Trazado_131" data-name="Trazado 131" d="M10.007,5.65a6.661,6.661,0,0,1,1.21-.055h5.594l.834-4.035H11.757a11.811,11.811,0,0,0-4.746.685A5.293,5.293,0,0,0,4.071,6.389L1.26,20.067h2.5a2.736,2.736,0,0,0,2.8-2.277L7.559,12.8H14.63l.814-3.932H8.379L8.667,7.5a7.184,7.184,0,0,1,.2-.821,1.431,1.431,0,0,1,1.142-1.028Z" transform="translate(-1.26 -1.163)" fill="#fff"/>
        <path id="Trazado_132" data-name="Trazado 132" d="M85.229,4.315A2.414,2.414,0,0,0,82.992,3.05c-1.717,0-3,1.081-4.042,3.419l-3.42,7.523V4.062A2.948,2.948,0,0,0,74.8,1.887a2.817,2.817,0,0,0-2.052-.732,5.532,5.532,0,0,0-1.436.2l-.191.062.253,15.469c.043,2.142.807,3.057,2.736,3.262a2.865,2.865,0,0,0,.343,0c1.573,0,2.982-1.156,3.864-3.167l3.31-7.475v1.662l.082,5.71c.055,2.236.957,3.269,2.913,3.269,1.792,0,3.023-.985,4-3.18l6.947-15.49-.246-.1A5.553,5.553,0,0,0,93.374,1a3.276,3.276,0,0,0-3.187,2.134c-.814,1.915-4.227,10.34-4.254,10.429l-.157.376-.055-7.106a5.825,5.825,0,0,0-.493-2.517Z" transform="translate(-23.344 -0.991)" fill="#fff"/>
        <path id="Trazado_133" data-name="Trazado 133" d="M34.759,15.994,33.9,20.1H29.248c-2.3,0-4.283-.1-5.307-1.368-.685-.807-.807-1.99-.471-3.611L26.3,1.578h1.276a3.057,3.057,0,0,1,2.356.971,3.269,3.269,0,0,1,.438,2.824l-1.89,8.89c-.178.857-.185,1.293,0,1.5s.6.3,1.429.3h4.808" transform="translate(-8.225 -1.175)" fill="#fff"/>
      </g>
      <path id="Trazado_134" data-name="Trazado 134" d="M115.034,8.36h2.736a4.474,4.474,0,0,1,3.043.957,3.064,3.064,0,0,1,.834,2.216,3.953,3.953,0,0,1-1.081,2.8,3,3,0,0,1-1,.685,4.021,4.021,0,0,1,1.7.957,3.248,3.248,0,0,1,.848,2.318,4.377,4.377,0,0,1-1.19,3.064c-1.108,1.087-2.736,1.19-4.322,1.19H113.29ZM114.349,21.7h2.38c1.512,0,2.736-.128,3.549-1.019a3.365,3.365,0,0,0,.841-2.3,2.393,2.393,0,0,0-.725-1.833,4.535,4.535,0,0,0-3.1-.869h-2.209Zm.848-6.914h2.052a3.42,3.42,0,0,0,2.613-.848,3.173,3.173,0,0,0,.827-2.277,2.27,2.27,0,0,0-.759-1.826,3.823,3.823,0,0,0-2.318-.615h-1.743Z" transform="translate(-36.674 -3.32)" fill="#fff"/>
      <path id="Trazado_135" data-name="Trazado 135" d="M132.863,8.36l-1.087,8.89c-.15,1.21-.383,2.681.745,3.782a3.618,3.618,0,0,0,2.64.917,4.247,4.247,0,0,0,3.077-1.108,5.653,5.653,0,0,0,1.32-3.591l1.088-8.89h.937L140.5,17.25a6.517,6.517,0,0,1-1.655,4.233,4.9,4.9,0,0,1-3.707,1.313,4.63,4.63,0,0,1-3.379-1.162c-1.129-1.149-1.129-2.66-.917-4.384l1.088-8.891Z" transform="translate(-42.187 -3.32)" fill="#fff"/>
      <path id="Trazado_136" data-name="Trazado 136" d="M157.352,10.679a2.613,2.613,0,0,0-2.53-1.744,2.955,2.955,0,0,0-2.188.848,2.736,2.736,0,0,0-.828,2,2.052,2.052,0,0,0,.595,1.491,6.2,6.2,0,0,0,1.7,1.108l.685.383a8.891,8.891,0,0,1,2.168,1.368,2.79,2.79,0,0,1,.869,2.154,4.322,4.322,0,0,1-1.3,3.173A4.711,4.711,0,0,1,153,22.688a3.734,3.734,0,0,1-2.852-1.04,4.664,4.664,0,0,1-1.146-2l.857-.383a3.974,3.974,0,0,0,.93,1.7A3.057,3.057,0,0,0,153,21.84a4.158,4.158,0,0,0,2.8-.937,3.241,3.241,0,0,0,.978-2.462,2.181,2.181,0,0,0-.685-1.724,7.8,7.8,0,0,0-1.915-1.19l-.978-.533a7.748,7.748,0,0,1-1.593-1.169,2.688,2.688,0,0,1-.807-2,3.624,3.624,0,0,1,1.081-2.592,4.1,4.1,0,0,1,2.955-1.149,3.317,3.317,0,0,1,3.235,2.052Z" transform="translate(-47.963 -3.231)" fill="#fff"/>
      <path id="Trazado_137" data-name="Trazado 137" d="M168.311,8.36l-1.744,14.184h-.937L167.373,8.36Z" transform="translate(-53.22 -3.32)" fill="#fff"/>
      <path id="Trazado_138" data-name="Trazado 138" d="M172.59,22.462,174.354,8.1l10.381,12.507,1.512-12.358h.937L185.392,22.8,175.018,10.323l-1.464,12.139Z" transform="translate(-55.42 -3.238)" fill="#fff"/>
      <path id="Trazado_139" data-name="Trazado 139" d="M205.425,9.215h-5.868l-.642,5.143h5.745l-.137.848h-5.739L198,21.7h5.868l-.109.848H197L198.744,8.36h6.8Z" transform="translate(-63.136 -3.32)" fill="#fff"/>
      <path id="Trazado_140" data-name="Trazado 140" d="M219.137,10.677a2.613,2.613,0,0,0-2.53-1.744,2.955,2.955,0,0,0-2.188.848,2.736,2.736,0,0,0-.834,2,2.086,2.086,0,0,0,.595,1.491,6.415,6.415,0,0,0,1.7,1.108l.685.383a9.034,9.034,0,0,1,2.168,1.368,2.811,2.811,0,0,1,.848,2.154,4.315,4.315,0,0,1-1.313,3.167,4.726,4.726,0,0,1-3.536,1.231,3.726,3.726,0,0,1-2.845-1.04,4.664,4.664,0,0,1-1.11-1.99l.848-.383a4.1,4.1,0,0,0,.937,1.7,3.057,3.057,0,0,0,2.216.869,4.158,4.158,0,0,0,2.8-.937,3.269,3.269,0,0,0,.978-2.462,2.2,2.2,0,0,0-.685-1.724,7.8,7.8,0,0,0-1.915-1.19l-.977-.534a7.57,7.57,0,0,1-1.593-1.169,2.688,2.688,0,0,1-.814-2,3.6,3.6,0,0,1,1.087-2.592,4.1,4.1,0,0,1,2.955-1.149,3.317,3.317,0,0,1,3.235,2.052Z" transform="translate(-67.493 -3.23)" fill="#fff"/>
      <path id="Trazado_141" data-name="Trazado 141" d="M233.8,10.679A2.619,2.619,0,0,0,231.3,8.935a2.975,2.975,0,0,0-2.2.848,2.736,2.736,0,0,0-.828,2,2.051,2.051,0,0,0,.595,1.491,6.415,6.415,0,0,0,1.7,1.108l.685.383a9.034,9.034,0,0,1,2.168,1.368,2.811,2.811,0,0,1,.834,2.154,4.3,4.3,0,0,1-1.32,3.167,4.7,4.7,0,0,1-3.529,1.231,3.755,3.755,0,0,1-2.852-1.04,4.719,4.719,0,0,1-1.1-1.99l.848-.383a4.021,4.021,0,0,0,.937,1.7,3.029,3.029,0,0,0,2.209.869,4.185,4.185,0,0,0,2.811-.937,3.269,3.269,0,0,0,.978-2.462,2.188,2.188,0,0,0-.685-1.724,7.522,7.522,0,0,0-1.942-1.169l-.978-.533a7.748,7.748,0,0,1-1.593-1.169,2.736,2.736,0,0,1-.807-2,3.6,3.6,0,0,1,1.087-2.592A4.1,4.1,0,0,1,231.3,8.081a3.317,3.317,0,0,1,3.235,2.052Z" transform="translate(-72.133 -3.231)" fill="#fff"/>
    </g>
    <g id="logo-btc" transform="translate(578.236 58)">
      <g id="UI-_-Logos-_-Flow-Business" data-name="UI-/-Logos-/-Flow-Business" transform="translate(0 0)">
        <g id="Group-8">
          <g id="Group-3" transform="translate(56.026)">
            <path id="Fill-1" d="M35.154,7.388a7.768,7.768,0,0,0,.631-3.093,2.716,2.716,0,0,0-1.042-1.878A9.781,9.781,0,0,0,30.22.632,44.888,44.888,0,0,0,22,0,38.614,38.614,0,0,0,10.217,1.558,16.734,16.734,0,0,0,3.606,5.287a11.9,11.9,0,0,0-2.949,4.5,7.042,7.042,0,0,0-.287,5.177q.86,2.189,4.313,3.388A32.7,32.7,0,0,0,14.76,19.559,45.994,45.994,0,0,0,23,18.872a23.277,23.277,0,0,0,6.757-2.193,8.615,8.615,0,0,0,2.772-2.235,9.912,9.912,0,0,0,1.357-2.451H22.459a5.08,5.08,0,0,1-2.329,2.652,8.645,8.645,0,0,1-4.124.853,5.241,5.241,0,0,1-3.151-.794,2.706,2.706,0,0,1-1.067-2.068A6.84,6.84,0,0,1,12.3,9.782a9.938,9.938,0,0,1,1.6-2.858,7.634,7.634,0,0,1,2.6-2.064,8.509,8.509,0,0,1,3.738-.8,4.439,4.439,0,0,1,3.085.8,2.5,2.5,0,0,1,.4,2.522Z" transform="translate(0)" fill="#fff" fill-rule="evenodd"/>
          </g>
          <path id="Fill-4" d="M29.48,18.962h11.2L45.889,4.908h8.734L56.3.379H27.63L25.951,4.908h8.736Z" transform="translate(7.442 0.109)" fill="#fff" fill-rule="evenodd"/>
          <path id="Fill-6" d="M14.08,11.189H17.4a9.238,9.238,0,0,1,3.889.54,1.2,1.2,0,0,1,.556,1.7,2.82,2.82,0,0,1-1.815,1.7,12.6,12.6,0,0,1-4.287.541H12.42ZM0,18.962H19.609q2.836,0,4.61-.144a16.623,16.623,0,0,0,2.947-.466,11.441,11.441,0,0,0,2.187-.832,6.857,6.857,0,0,0,1.937-1.39,5.7,5.7,0,0,0,1.255-1.954,2.781,2.781,0,0,0-.118-2.58,4,4,0,0,0-2.168-1.473,12.43,12.43,0,0,0-3.376-.557l.021-.049a17.356,17.356,0,0,0,4.951-1.425A5.418,5.418,0,0,0,34.72,5.219a2.606,2.606,0,0,0-1.37-3.6Q31.062.388,25.054.379H6.885ZM16.806,3.825h3.283a6.567,6.567,0,0,1,3.279.527,1.133,1.133,0,0,1,.286,1.511,2.579,2.579,0,0,1-1.473,1.48,8.921,8.921,0,0,1-3.562.555H15.3Z" transform="translate(0 0.109)" fill="#fff" fill-rule="evenodd"/>
        </g>
        <g id="Grupo_349" data-name="Grupo 349" transform="translate(-10.355 -49.423)">
          <path id="Trazado_134-2" data-name="Trazado 134" d="M115.034,8.36h2.736a4.474,4.474,0,0,1,3.043.957,3.064,3.064,0,0,1,.834,2.216,3.953,3.953,0,0,1-1.081,2.8,3,3,0,0,1-1,.685,4.021,4.021,0,0,1,1.7.957,3.248,3.248,0,0,1,.848,2.318,4.377,4.377,0,0,1-1.19,3.064c-1.108,1.087-2.736,1.19-4.322,1.19H113.29ZM114.349,21.7h2.38c1.512,0,2.736-.128,3.549-1.019a3.365,3.365,0,0,0,.841-2.3,2.393,2.393,0,0,0-.725-1.833,4.535,4.535,0,0,0-3.1-.869h-2.209Zm.848-6.914h2.052a3.42,3.42,0,0,0,2.613-.848,3.173,3.173,0,0,0,.827-2.277,2.27,2.27,0,0,0-.759-1.826,3.823,3.823,0,0,0-2.318-.615h-1.743Z" transform="translate(-8.075 45.68)" fill="#fff"/>
          <path id="Trazado_135-2" data-name="Trazado 135" d="M132.863,8.36l-1.087,8.89c-.15,1.21-.383,2.681.745,3.782a3.618,3.618,0,0,0,2.64.917,4.247,4.247,0,0,0,3.077-1.108,5.653,5.653,0,0,0,1.32-3.591l1.088-8.89h.937L140.5,17.25a6.517,6.517,0,0,1-1.655,4.233,4.9,4.9,0,0,1-3.707,1.313,4.63,4.63,0,0,1-3.379-1.162c-1.129-1.149-1.129-2.66-.917-4.384l1.088-8.891Z" transform="translate(-13.587 45.68)" fill="#fff"/>
          <path id="Trazado_136-2" data-name="Trazado 136" d="M157.352,10.679a2.613,2.613,0,0,0-2.53-1.744,2.955,2.955,0,0,0-2.188.848,2.736,2.736,0,0,0-.828,2,2.052,2.052,0,0,0,.595,1.491,6.2,6.2,0,0,0,1.7,1.108l.685.383a8.891,8.891,0,0,1,2.168,1.368,2.79,2.79,0,0,1,.869,2.154,4.322,4.322,0,0,1-1.3,3.173A4.711,4.711,0,0,1,153,22.688a3.734,3.734,0,0,1-2.852-1.04,4.664,4.664,0,0,1-1.146-2l.857-.383a3.974,3.974,0,0,0,.93,1.7A3.057,3.057,0,0,0,153,21.84a4.158,4.158,0,0,0,2.8-.937,3.241,3.241,0,0,0,.978-2.462,2.181,2.181,0,0,0-.685-1.724,7.8,7.8,0,0,0-1.915-1.19l-.978-.533a7.748,7.748,0,0,1-1.593-1.169,2.688,2.688,0,0,1-.807-2,3.624,3.624,0,0,1,1.081-2.592,4.1,4.1,0,0,1,2.955-1.149,3.317,3.317,0,0,1,3.235,2.052Z" transform="translate(-19.363 45.769)" fill="#fff"/>
          <path id="Trazado_137-2" data-name="Trazado 137" d="M168.311,8.36l-1.744,14.184h-.937L167.373,8.36Z" transform="translate(-24.621 45.68)" fill="#fff"/>
          <path id="Trazado_138-2" data-name="Trazado 138" d="M172.59,22.462,174.354,8.1l10.381,12.507,1.512-12.358h.937L185.392,22.8,175.018,10.323l-1.464,12.139Z" transform="translate(-26.82 45.762)" fill="#fff"/>
          <path id="Trazado_139-2" data-name="Trazado 139" d="M205.425,9.215h-5.868l-.642,5.143h5.745l-.137.848h-5.739L198,21.7h5.868l-.109.848H197L198.744,8.36h6.8Z" transform="translate(-34.537 45.68)" fill="#fff"/>
          <path id="Trazado_140-2" data-name="Trazado 140" d="M219.137,10.677a2.613,2.613,0,0,0-2.53-1.744,2.955,2.955,0,0,0-2.188.848,2.736,2.736,0,0,0-.834,2,2.086,2.086,0,0,0,.595,1.491,6.415,6.415,0,0,0,1.7,1.108l.685.383a9.034,9.034,0,0,1,2.168,1.368,2.811,2.811,0,0,1,.848,2.154,4.315,4.315,0,0,1-1.313,3.167,4.726,4.726,0,0,1-3.536,1.231,3.726,3.726,0,0,1-2.845-1.04,4.664,4.664,0,0,1-1.11-1.99l.848-.383a4.1,4.1,0,0,0,.937,1.7,3.057,3.057,0,0,0,2.216.869,4.158,4.158,0,0,0,2.8-.937,3.269,3.269,0,0,0,.978-2.462,2.2,2.2,0,0,0-.685-1.724,7.8,7.8,0,0,0-1.915-1.19l-.977-.534a7.57,7.57,0,0,1-1.593-1.169,2.688,2.688,0,0,1-.814-2,3.6,3.6,0,0,1,1.087-2.592,4.1,4.1,0,0,1,2.955-1.149,3.317,3.317,0,0,1,3.235,2.052Z" transform="translate(-38.893 45.77)" fill="#fff"/>
          <path id="Trazado_141-2" data-name="Trazado 141" d="M233.8,10.679A2.619,2.619,0,0,0,231.3,8.935a2.975,2.975,0,0,0-2.2.848,2.736,2.736,0,0,0-.828,2,2.051,2.051,0,0,0,.595,1.491,6.415,6.415,0,0,0,1.7,1.108l.685.383a9.034,9.034,0,0,1,2.168,1.368,2.811,2.811,0,0,1,.834,2.154,4.3,4.3,0,0,1-1.32,3.167,4.7,4.7,0,0,1-3.529,1.231,3.755,3.755,0,0,1-2.852-1.04,4.719,4.719,0,0,1-1.1-1.99l.848-.383a4.021,4.021,0,0,0,.937,1.7,3.029,3.029,0,0,0,2.209.869,4.185,4.185,0,0,0,2.811-.937,3.269,3.269,0,0,0,.978-2.462,2.188,2.188,0,0,0-.685-1.724,7.522,7.522,0,0,0-1.942-1.169l-.978-.533a7.748,7.748,0,0,1-1.593-1.169,2.736,2.736,0,0,1-.807-2,3.6,3.6,0,0,1,1.087-2.592A4.1,4.1,0,0,1,231.3,8.081a3.317,3.317,0,0,1,3.235,2.052Z" transform="translate(-43.533 45.769)" fill="#fff"/>
        </g>
      </g>
    </g>
  </g>
</svg>
