<svg xmlns="http://www.w3.org/2000/svg" width="253.832" height="13.312" viewBox="0 0 253.832 13.312">
  <g id="logos-footer" transform="translate(-405 -65.247)">
    <g id="logo-footer-flow" transform="translate(405 65.247)">
      <g id="Flow_Business" transform="translate(0 0)">
        <path id="Trazado_130" data-name="Trazado 130" d="M54.091,6.864a1.141,1.141,0,0,1,0-.126V6.282a5.39,5.39,0,0,0-1.1-3.328A5.32,5.32,0,0,0,48.915.995a7.326,7.326,0,0,0-4.962,1.7,8.057,8.057,0,0,0-1.606,1.8,7.149,7.149,0,0,0-1.122,2.639v.037c-.033.168-.061.335-.084.5a.407.407,0,0,1,0,.074,1.017,1.017,0,0,1-.033.312,1.146,1.146,0,0,1,0,.13v.452a5.39,5.39,0,0,0,1.1,3.328,5.305,5.305,0,0,0,4.11,1.955,7.346,7.346,0,0,0,4.962-1.694,8.164,8.164,0,0,0,1.606-1.8,7.094,7.094,0,0,0,1.121-2.644V7.753c.033-.172.061-.335.084-.5a.359.359,0,0,1,0-.07C54.091,7.074,54.091,6.967,54.091,6.864Zm-9.267,3.258A3.4,3.4,0,0,1,44.3,7.33V7.3a4.133,4.133,0,0,1,4.11-3.44h.121a2.56,2.56,0,0,1,1.839.963,3.379,3.379,0,0,1,.525,2.793v.037a4.147,4.147,0,0,1-4.115,3.44h-.117a2.574,2.574,0,0,1-1.82-.987Z" transform="translate(-22.561 -0.99)" fill="#b2b2b2"/>
        <path id="Trazado_131" data-name="Trazado 131" d="M7.213,4.336A4.534,4.534,0,0,1,8.037,4.3h3.807l.568-2.746H8.4a8.038,8.038,0,0,0-3.23.466,3.6,3.6,0,0,0-2,2.821L1.26,14.149h1.7a1.862,1.862,0,0,0,1.9-1.55l.684-3.4H10.36l.554-2.676H6.105l.2-.931a4.889,4.889,0,0,1,.135-.559.974.974,0,0,1,.777-.7Z" transform="translate(-1.26 -1.283)" fill="#b2b2b2"/>
        <path id="Trazado_132" data-name="Trazado 132" d="M80.722,3.255A1.643,1.643,0,0,0,79.2,2.393c-1.168,0-2.043.735-2.751,2.327l-2.327,5.12V3.082a2.006,2.006,0,0,0-.5-1.48,1.918,1.918,0,0,0-1.4-.5,3.765,3.765,0,0,0-.977.135l-.13.042.172,10.528c.029,1.458.549,2.081,1.862,2.22a1.95,1.95,0,0,0,.233,0,3.066,3.066,0,0,0,2.63-2.155L78.27,6.787V7.918l.056,3.886c.037,1.522.652,2.225,1.982,2.225,1.219,0,2.057-.67,2.723-2.164L87.759,1.323l-.168-.07A3.779,3.779,0,0,0,86.266,1,2.229,2.229,0,0,0,84.1,2.449c-.554,1.3-2.877,7.038-2.895,7.1l-.107.256-.037-4.836a3.964,3.964,0,0,0-.335-1.713Z" transform="translate(-38.604 -0.993)" fill="#b2b2b2"/>
        <path id="Trazado_133" data-name="Trazado 133" d="M31.1,11.389l-.583,2.793H27.345c-1.564,0-2.915-.07-3.612-.931a2.787,2.787,0,0,1-.321-2.458l1.927-9.216h.869a2.08,2.08,0,0,1,1.6.661,2.225,2.225,0,0,1,.3,1.922l-1.286,6.051c-.121.583-.126.88,0,1.02s.41.2.973.2h3.272" transform="translate(-13.036 -1.303)" fill="#b2b2b2"/>
      </g>
      <path id="Trazado_134" data-name="Trazado 134" d="M114.477,8.36h1.862a3.045,3.045,0,0,1,2.071.652,2.085,2.085,0,0,1,.568,1.508,2.69,2.69,0,0,1-.735,1.908,2.039,2.039,0,0,1-.68.466,2.737,2.737,0,0,1,1.159.652,2.211,2.211,0,0,1,.577,1.578,2.979,2.979,0,0,1-.81,2.085,4.026,4.026,0,0,1-2.942.81H113.29Zm-.466,9.076h1.62a3.065,3.065,0,0,0,2.416-.694,2.29,2.29,0,0,0,.573-1.569,1.629,1.629,0,0,0-.494-1.247,3.087,3.087,0,0,0-2.113-.591h-1.5Zm.577-4.706h1.4a2.327,2.327,0,0,0,1.778-.577,2.16,2.16,0,0,0,.563-1.55,1.545,1.545,0,0,0-.517-1.243,2.6,2.6,0,0,0-1.578-.419h-1.186Z" transform="translate(-61.145 -4.93)" fill="#b2b2b2"/>
      <path id="Trazado_135" data-name="Trazado 135" d="M132.182,8.36l-.74,6.051a2.8,2.8,0,0,0,.507,2.574,2.462,2.462,0,0,0,1.8.624,2.891,2.891,0,0,0,2.094-.754,3.848,3.848,0,0,0,.9-2.444l.74-6.051h.638l-.74,6.051a4.436,4.436,0,0,1-1.126,2.881,3.337,3.337,0,0,1-2.523.894,3.151,3.151,0,0,1-2.3-.791,3.358,3.358,0,0,1-.624-2.984l.74-6.051Z" transform="translate(-70.468 -4.93)" fill="#b2b2b2"/>
      <path id="Trazado_136" data-name="Trazado 136" d="M154.684,9.848a1.778,1.778,0,0,0-1.722-1.187,2.011,2.011,0,0,0-1.489.577,1.862,1.862,0,0,0-.563,1.359,1.4,1.4,0,0,0,.4,1.015,4.221,4.221,0,0,0,1.159.754l.466.261a6.051,6.051,0,0,1,1.476.931,1.9,1.9,0,0,1,.591,1.466,2.942,2.942,0,0,1-.884,2.16,3.207,3.207,0,0,1-2.4.838,2.541,2.541,0,0,1-1.941-.707,3.175,3.175,0,0,1-.78-1.359l.583-.261a2.7,2.7,0,0,0,.633,1.159,2.081,2.081,0,0,0,1.508.591,2.83,2.83,0,0,0,1.909-.638,2.206,2.206,0,0,0,.666-1.676,1.485,1.485,0,0,0-.466-1.173,5.305,5.305,0,0,0-1.3-.81l-.666-.363a5.273,5.273,0,0,1-1.084-.8,1.829,1.829,0,0,1-.549-1.364,2.467,2.467,0,0,1,.735-1.764,2.793,2.793,0,0,1,2.011-.782,2.257,2.257,0,0,1,2.2,1.4Z" transform="translate(-80.234 -4.779)" fill="#b2b2b2"/>
      <path id="Trazado_137" data-name="Trazado 137" d="M167.455,8.36l-1.187,9.654h-.638l1.186-9.654Z" transform="translate(-89.124 -4.93)" fill="#b2b2b2"/>
      <path id="Trazado_138" data-name="Trazado 138" d="M172.59,17.875l1.2-9.775,7.066,8.512L181.885,8.2h.638L181.3,18.1l-7.061-8.49-1,8.262Z" transform="translate(-92.844 -4.791)" fill="#b2b2b2"/>
      <path id="Trazado_139" data-name="Trazado 139" d="M202.734,8.942h-3.994l-.437,3.5h3.91l-.093.577h-3.906l-.534,4.418h3.994l-.074.577H197l1.187-9.655h4.631Z" transform="translate(-105.892 -4.93)" fill="#b2b2b2"/>
      <path id="Trazado_140" data-name="Trazado 140" d="M216.468,9.846a1.778,1.778,0,0,0-1.722-1.187,2.011,2.011,0,0,0-1.489.577,1.862,1.862,0,0,0-.568,1.359,1.42,1.42,0,0,0,.4,1.015,4.366,4.366,0,0,0,1.159.754l.466.261a6.149,6.149,0,0,1,1.476.931,1.913,1.913,0,0,1,.577,1.466,2.937,2.937,0,0,1-.894,2.155,3.216,3.216,0,0,1-2.406.838,2.536,2.536,0,0,1-1.936-.707,3.175,3.175,0,0,1-.755-1.354l.577-.261A2.793,2.793,0,0,0,212,16.852a2.081,2.081,0,0,0,1.508.591,2.83,2.83,0,0,0,1.909-.638,2.225,2.225,0,0,0,.666-1.676,1.5,1.5,0,0,0-.466-1.173,5.305,5.305,0,0,0-1.3-.81l-.665-.364a5.152,5.152,0,0,1-1.084-.8A1.829,1.829,0,0,1,212,10.624a2.453,2.453,0,0,1,.74-1.764,2.793,2.793,0,0,1,2.011-.782,2.257,2.257,0,0,1,2.2,1.4Z" transform="translate(-113.258 -4.778)" fill="#b2b2b2"/>
      <path id="Trazado_141" data-name="Trazado 141" d="M231.134,9.848a1.783,1.783,0,0,0-1.7-1.187,2.025,2.025,0,0,0-1.494.577,1.862,1.862,0,0,0-.563,1.359,1.4,1.4,0,0,0,.4,1.015,4.367,4.367,0,0,0,1.159.754l.466.261a6.149,6.149,0,0,1,1.476.931,1.913,1.913,0,0,1,.568,1.466,2.923,2.923,0,0,1-.9,2.155,3.2,3.2,0,0,1-2.4.838,2.555,2.555,0,0,1-1.941-.707,3.212,3.212,0,0,1-.752-1.355l.577-.261a2.737,2.737,0,0,0,.638,1.159,2.062,2.062,0,0,0,1.5.591,2.849,2.849,0,0,0,1.913-.638,2.225,2.225,0,0,0,.665-1.676,1.489,1.489,0,0,0-.466-1.173,5.12,5.12,0,0,0-1.322-.8L228.3,12.8a5.273,5.273,0,0,1-1.084-.8,1.862,1.862,0,0,1-.549-1.364,2.453,2.453,0,0,1,.74-1.764,2.793,2.793,0,0,1,2.025-.8,2.257,2.257,0,0,1,2.2,1.4Z" transform="translate(-121.105 -4.779)" fill="#b2b2b2"/>
    </g>
    <g id="logo-footer-btc" transform="translate(522.336 65.247)">
      <g id="UI-_-Logos-_-Flow-Business" data-name="UI-/-Logos-/-Flow-Business" transform="translate(0 0)">
        <g id="Group" transform="translate(64.562 0.666)">
          <path id="Fill-9" d="M1.587,5.569H3.3a2.881,2.881,0,0,0,2.194-.713,2.661,2.661,0,0,0,.7-1.908,1.9,1.9,0,0,0-.624-1.534A3.208,3.208,0,0,0,3.62.9H2.158Zm-.713,5.8h2a3.812,3.812,0,0,0,2.978-.856,2.824,2.824,0,0,0,.714-1.962,2,2,0,0,0-.607-1.534,3.8,3.8,0,0,0-2.6-.731H1.5ZM1.462.183H3.745a3.761,3.761,0,0,1,2.55.8,2.567,2.567,0,0,1,.714,1.873A3.317,3.317,0,0,1,6.1,5.212a2.561,2.561,0,0,1-.838.553,3.31,3.31,0,0,1,1.427.8A2.7,2.7,0,0,1,7.4,8.512a3.666,3.666,0,0,1-1,2.568,5,5,0,0,1-3.62,1H0Z" transform="translate(0 -0.023)" fill="#b2b2b2" fill-rule="evenodd"/>
          <path id="Fill-11" d="M13.205.183,12.3,7.62c-.125,1.016-.321,2.247.624,3.174a3.033,3.033,0,0,0,2.211.767,3.577,3.577,0,0,0,2.586-.927A4.777,4.777,0,0,0,18.823,7.62l.91-7.437h.785l-.91,7.437a5.426,5.426,0,0,1-1.391,3.549,4.116,4.116,0,0,1-3.1,1.106,3.891,3.891,0,0,1-2.836-.981c-.945-.963-.945-2.229-.767-3.674l.91-7.437Z" transform="translate(-1.419 -0.023)" fill="#b2b2b2" fill-rule="evenodd"/>
          <path id="Fill-13" d="M30.385,2.176A2.2,2.2,0,0,0,28.263.713a2.5,2.5,0,0,0-1.837.714,2.313,2.313,0,0,0-.7,1.676,1.721,1.721,0,0,0,.5,1.249,5.32,5.32,0,0,0,1.426.927l.588.321a7.6,7.6,0,0,1,1.819,1.159,2.351,2.351,0,0,1,.714,1.8,3.62,3.62,0,0,1-1.106,2.657,3.963,3.963,0,0,1-2.96,1.034,3.128,3.128,0,0,1-2.39-.874A3.9,3.9,0,0,1,23.395,9.7l.713-.321a3.338,3.338,0,0,0,.785,1.427,2.547,2.547,0,0,0,1.855.731,3.511,3.511,0,0,0,2.354-.785,2.738,2.738,0,0,0,.82-2.069,1.845,1.845,0,0,0-.571-1.445,6.68,6.68,0,0,0-1.6-1L26.926,5.8a6.265,6.265,0,0,1-1.337-.981,2.254,2.254,0,0,1-.678-1.676A3.027,3.027,0,0,1,25.82.963,3.416,3.416,0,0,1,28.3,0,2.78,2.78,0,0,1,31.01,1.694Z" transform="translate(-2.906 0)" fill="#b2b2b2" fill-rule="evenodd"/>
          <path id="Fill-15" d="M36.515.183,35.052,12.078h-.784L35.73.183Z" transform="translate(-4.257 -0.023)" fill="#b2b2b2" fill-rule="evenodd"/>
          <path id="Fill-17" d="M38.828,12.061,40.309.041l8.7,10.486L50.278.166h.785l-1.5,12.2-8.7-10.486L39.613,12.061Z" transform="translate(-4.824 -0.005)" fill="#b2b2b2" fill-rule="evenodd"/>
          <path id="Fill-19" d="M61.872.9H56.95l-.535,4.316H61.23l-.089.713H56.325l-.66,5.439h4.922l-.089.713H54.792L56.254.183h5.707Z" transform="translate(-6.807 -0.023)" fill="#b2b2b2" fill-rule="evenodd"/>
          <path id="Fill-21" d="M70.823,2.176A2.2,2.2,0,0,0,68.7.713a2.5,2.5,0,0,0-1.837.714,2.313,2.313,0,0,0-.7,1.676,1.721,1.721,0,0,0,.5,1.249,5.32,5.32,0,0,0,1.426.927l.588.321A7.6,7.6,0,0,1,70.5,6.759a2.351,2.351,0,0,1,.714,1.8,3.62,3.62,0,0,1-1.106,2.657,3.963,3.963,0,0,1-2.96,1.034,3.128,3.128,0,0,1-2.39-.874A3.9,3.9,0,0,1,63.832,9.7l.713-.321a3.338,3.338,0,0,0,.785,1.427,2.547,2.547,0,0,0,1.855.731,3.511,3.511,0,0,0,2.354-.785,2.738,2.738,0,0,0,.82-2.069,1.845,1.845,0,0,0-.571-1.445,6.68,6.68,0,0,0-1.6-1L67.363,5.8a6.265,6.265,0,0,1-1.337-.981,2.254,2.254,0,0,1-.678-1.676,3.027,3.027,0,0,1,.91-2.176A3.416,3.416,0,0,1,68.736,0a2.78,2.78,0,0,1,2.711,1.694Z" transform="translate(-7.93 0)" fill="#b2b2b2" fill-rule="evenodd"/>
          <path id="Fill-23" d="M80.433,2.176A2.2,2.2,0,0,0,78.311.713a2.5,2.5,0,0,0-1.837.714,2.313,2.313,0,0,0-.7,1.676,1.721,1.721,0,0,0,.5,1.249,5.32,5.32,0,0,0,1.426.927l.589.321a7.612,7.612,0,0,1,1.819,1.159,2.352,2.352,0,0,1,.714,1.8,3.62,3.62,0,0,1-1.106,2.657,3.965,3.965,0,0,1-2.96,1.034,3.13,3.13,0,0,1-2.39-.874A3.894,3.894,0,0,1,73.443,9.7l.713-.321a3.334,3.334,0,0,0,.784,1.427,2.548,2.548,0,0,0,1.855.731,3.512,3.512,0,0,0,2.354-.785,2.74,2.74,0,0,0,.82-2.069A1.845,1.845,0,0,0,79.4,7.24a6.671,6.671,0,0,0-1.605-1l-.82-.446a6.272,6.272,0,0,1-1.337-.981,2.254,2.254,0,0,1-.678-1.676,3.026,3.026,0,0,1,.91-2.176A3.415,3.415,0,0,1,78.347,0a2.779,2.779,0,0,1,2.711,1.694Z" transform="translate(-9.124)" fill="#b2b2b2" fill-rule="evenodd"/>
        </g>
        <g id="Group-8">
          <g id="Group-3" transform="translate(38.131)">
            <path id="Fill-1" d="M23.926,5.028a5.287,5.287,0,0,0,.43-2.105,1.848,1.848,0,0,0-.71-1.278A6.657,6.657,0,0,0,20.568.43,30.551,30.551,0,0,0,14.976,0,26.281,26.281,0,0,0,6.954,1.061,11.389,11.389,0,0,0,2.454,3.6,8.1,8.1,0,0,0,.447,6.658a4.793,4.793,0,0,0-.2,3.523,4.44,4.44,0,0,0,2.935,2.306,22.257,22.257,0,0,0,6.859.825,31.3,31.3,0,0,0,5.608-.467,15.842,15.842,0,0,0,4.6-1.493A5.863,5.863,0,0,0,22.14,9.83a6.746,6.746,0,0,0,.924-1.668H15.286a3.457,3.457,0,0,1-1.585,1.8,5.884,5.884,0,0,1-2.807.581,3.567,3.567,0,0,1-2.144-.541A1.842,1.842,0,0,1,8.023,8.6a4.655,4.655,0,0,1,.348-1.942A6.764,6.764,0,0,1,9.459,4.713a5.2,5.2,0,0,1,1.772-1.4,5.791,5.791,0,0,1,2.544-.541,3.021,3.021,0,0,1,2.1.545,1.7,1.7,0,0,1,.274,1.717Z" transform="translate(0)" fill="#b2b2b2" fill-rule="evenodd"/>
          </g>
          <path id="Fill-4" d="M28.353,13.027h7.624l3.543-9.565h5.944L46.608.379H27.093L25.951,3.461H31.9Z" transform="translate(-3.224 -0.047)" fill="#b2b2b2" fill-rule="evenodd"/>
          <path id="Fill-6" d="M9.583,7.736h2.259a6.287,6.287,0,0,1,2.647.368.818.818,0,0,1,.378,1.156,1.919,1.919,0,0,1-1.236,1.159,8.579,8.579,0,0,1-2.918.368H8.453ZM0,13.027H13.346q1.93,0,3.137-.1a11.314,11.314,0,0,0,2.006-.317,7.787,7.787,0,0,0,1.489-.566A4.667,4.667,0,0,0,21.3,11.1a3.879,3.879,0,0,0,.854-1.33,1.893,1.893,0,0,0-.08-1.756,2.722,2.722,0,0,0-1.475-1,8.46,8.46,0,0,0-2.3-.379l.015-.034a11.812,11.812,0,0,0,3.37-.97,3.688,3.688,0,0,0,1.95-1.956A1.773,1.773,0,0,0,22.7,1.225Q21.141.386,17.052.379H4.686Zm11.438-10.3h2.234a4.47,4.47,0,0,1,2.232.359A.771.771,0,0,1,16.1,4.111a1.756,1.756,0,0,1-1,1.007,6.071,6.071,0,0,1-2.424.378H10.414Z" transform="translate(0 -0.047)" fill="#b2b2b2" fill-rule="evenodd"/>
        </g>
      </g>
    </g>
  </g>
</svg>
